<svg width="143" height="154" viewBox="0 0 143 154" fill="none" xmlns="http://www.w3.org/2000/svg">
<g filter="url(#filter0_d_1416_97)">
<circle cx="71" cy="57" r="50" fill="#3C7E2D"/>
<rect x="11" y="111" width="121" height="28" rx="14" fill="#3C7E2D"/>
<path d="M40.0227 123C39.929 122.713 39.8054 122.456 39.652 122.229C39.5014 121.999 39.321 121.803 39.1108 121.641C38.9034 121.479 38.6676 121.355 38.4034 121.27C38.1392 121.185 37.8494 121.142 37.5341 121.142C37.017 121.142 36.5469 121.276 36.1236 121.543C35.7003 121.81 35.3636 122.203 35.1136 122.723C34.8636 123.243 34.7386 123.881 34.7386 124.636C34.7386 125.392 34.8651 126.03 35.1179 126.55C35.3707 127.07 35.7131 127.463 36.1449 127.73C36.5767 127.997 37.0625 128.131 37.6023 128.131C38.1023 128.131 38.5426 128.024 38.9233 127.811C39.3068 127.595 39.6051 127.291 39.8182 126.899C40.0341 126.504 40.142 126.04 40.142 125.506L40.4659 125.574H37.8409V124.636H41.1648V125.574C41.1648 126.293 41.0114 126.918 40.7045 127.449C40.4006 127.98 39.9801 128.392 39.4432 128.685C38.9091 128.974 38.2955 129.119 37.6023 129.119C36.8295 129.119 36.1506 128.938 35.5653 128.574C34.983 128.21 34.5284 127.693 34.2017 127.023C33.8778 126.352 33.7159 125.557 33.7159 124.636C33.7159 123.946 33.8082 123.325 33.9929 122.774C34.1804 122.22 34.4446 121.749 34.7855 121.359C35.1264 120.97 35.5298 120.672 35.9957 120.464C36.4616 120.257 36.9744 120.153 37.5341 120.153C37.9943 120.153 38.4233 120.223 38.821 120.362C39.2216 120.499 39.5781 120.693 39.8906 120.946C40.206 121.196 40.4688 121.496 40.679 121.845C40.8892 122.192 41.0341 122.577 41.1136 123H40.0227ZM45.5827 129.136C44.9521 129.136 44.408 128.997 43.9506 128.719C43.4961 128.438 43.1452 128.045 42.8981 127.543C42.6538 127.037 42.5316 126.449 42.5316 125.778C42.5316 125.108 42.6538 124.517 42.8981 124.006C43.1452 123.491 43.489 123.091 43.9293 122.804C44.3725 122.514 44.8896 122.369 45.4805 122.369C45.8214 122.369 46.158 122.426 46.4904 122.54C46.8228 122.653 47.1254 122.838 47.3981 123.094C47.6708 123.347 47.8881 123.682 48.0501 124.099C48.212 124.517 48.293 125.031 48.293 125.642V126.068H43.2475V125.199H47.2702C47.2702 124.83 47.1964 124.5 47.0487 124.21C46.9038 123.92 46.6964 123.692 46.4265 123.524C46.1594 123.357 45.8441 123.273 45.4805 123.273C45.0799 123.273 44.7333 123.372 44.4407 123.571C44.1509 123.767 43.9279 124.023 43.7717 124.338C43.6154 124.653 43.5373 124.991 43.5373 125.352V125.932C43.5373 126.426 43.6225 126.845 43.793 127.189C43.9663 127.53 44.2063 127.79 44.5131 127.969C44.82 128.145 45.1765 128.233 45.5827 128.233C45.8469 128.233 46.0856 128.196 46.2987 128.122C46.5146 128.045 46.7006 127.932 46.8569 127.781C47.0131 127.628 47.1339 127.437 47.2191 127.21L48.1907 127.483C48.0884 127.812 47.9165 128.102 47.6751 128.352C47.4336 128.599 47.1353 128.793 46.7802 128.932C46.4251 129.068 46.0259 129.136 45.5827 129.136ZM52.6694 122.455V123.307H49.2773V122.455H52.6694ZM50.266 120.886H51.2717V127.125C51.2717 127.409 51.3129 127.622 51.3952 127.764C51.4805 127.903 51.5884 127.997 51.7191 128.045C51.8526 128.091 51.9933 128.114 52.141 128.114C52.2518 128.114 52.3427 128.108 52.4137 128.097C52.4847 128.082 52.5415 128.071 52.5842 128.062L52.7887 128.966C52.7205 128.991 52.6254 129.017 52.5032 129.043C52.381 129.071 52.2262 129.085 52.0387 129.085C51.7546 129.085 51.4762 129.024 51.2035 128.902C50.9336 128.78 50.7092 128.594 50.5302 128.344C50.354 128.094 50.266 127.778 50.266 127.398V120.886ZM62.4663 122.455C62.4151 122.023 62.2077 121.688 61.8441 121.449C61.4805 121.21 61.0344 121.091 60.506 121.091C60.1197 121.091 59.7816 121.153 59.4918 121.278C59.2049 121.403 58.9805 121.575 58.8185 121.794C58.6594 122.013 58.5799 122.261 58.5799 122.54C58.5799 122.773 58.6353 122.973 58.7461 123.141C58.8597 123.305 59.0046 123.443 59.1808 123.554C59.3569 123.662 59.5415 123.751 59.7347 123.822C59.9279 123.891 60.1055 123.946 60.2674 123.989L61.1538 124.227C61.381 124.287 61.6339 124.369 61.9123 124.474C62.1935 124.58 62.462 124.723 62.7177 124.905C62.9762 125.084 63.1893 125.314 63.3569 125.595C63.5245 125.876 63.6083 126.222 63.6083 126.631C63.6083 127.102 63.4847 127.528 63.2376 127.909C62.9933 128.29 62.6353 128.592 62.1637 128.817C61.695 129.041 61.1254 129.153 60.4549 129.153C59.8299 129.153 59.2887 129.053 58.8313 128.851C58.3768 128.649 58.0188 128.368 57.7575 128.007C57.4989 127.646 57.3526 127.227 57.3185 126.75H58.4094C58.4379 127.08 58.5487 127.352 58.7418 127.568C58.9379 127.781 59.185 127.94 59.4833 128.045C59.7844 128.148 60.1083 128.199 60.4549 128.199C60.8583 128.199 61.2205 128.134 61.5415 128.003C61.8626 127.869 62.1168 127.685 62.3043 127.449C62.4918 127.21 62.5856 126.932 62.5856 126.614C62.5856 126.324 62.5046 126.088 62.3427 125.906C62.1808 125.724 61.9677 125.577 61.7035 125.463C61.4393 125.349 61.1538 125.25 60.8469 125.165L59.7731 124.858C59.0913 124.662 58.5515 124.382 58.1538 124.018C57.756 123.655 57.5572 123.179 57.5572 122.591C57.5572 122.102 57.6893 121.676 57.9535 121.312C58.2205 120.946 58.5785 120.662 59.0273 120.46C59.479 120.256 59.9833 120.153 60.5401 120.153C61.1026 120.153 61.6026 120.254 62.0401 120.456C62.4776 120.655 62.8242 120.928 63.0799 121.274C63.3384 121.621 63.4748 122.014 63.489 122.455H62.4663ZM69.3345 126.324V122.455H70.3402V129H69.3345V127.892H69.2663C69.1129 128.224 68.8743 128.507 68.5504 128.74C68.2266 128.97 67.8175 129.085 67.3232 129.085C66.9141 129.085 66.5504 128.996 66.2322 128.817C65.9141 128.635 65.6641 128.362 65.4822 127.999C65.3004 127.632 65.2095 127.17 65.2095 126.614V122.455H66.2152V126.545C66.2152 127.023 66.3487 127.403 66.6158 127.688C66.8857 127.972 67.2294 128.114 67.647 128.114C67.897 128.114 68.1513 128.05 68.4098 127.922C68.6712 127.794 68.8899 127.598 69.0661 127.334C69.245 127.07 69.3345 126.733 69.3345 126.324ZM72.1822 131.455V122.455H73.1538V123.494H73.2731C73.3469 123.381 73.4492 123.236 73.5799 123.06C73.7134 122.881 73.9038 122.722 74.1509 122.582C74.4009 122.44 74.739 122.369 75.1651 122.369C75.7163 122.369 76.2021 122.507 76.6225 122.783C77.043 123.058 77.3711 123.449 77.6069 123.955C77.8427 124.46 77.9606 125.057 77.9606 125.744C77.9606 126.438 77.8427 127.038 77.6069 127.547C77.3711 128.053 77.0444 128.445 76.6268 128.723C76.2092 128.999 75.7276 129.136 75.1822 129.136C74.7617 129.136 74.4251 129.067 74.1722 128.928C73.9194 128.786 73.7248 128.625 73.5884 128.446C73.4521 128.264 73.3469 128.114 73.2731 127.994H73.1879V131.455H72.1822ZM73.1708 125.727C73.1708 126.222 73.2433 126.658 73.3881 127.036C73.533 127.411 73.7447 127.705 74.0231 127.918C74.3015 128.128 74.6424 128.233 75.0458 128.233C75.4663 128.233 75.8171 128.122 76.0984 127.901C76.3825 127.676 76.5955 127.375 76.7376 126.997C76.8825 126.616 76.9549 126.193 76.9549 125.727C76.9549 125.267 76.8839 124.852 76.7418 124.483C76.6026 124.111 76.391 123.817 76.1069 123.601C75.8256 123.382 75.4719 123.273 75.0458 123.273C74.6367 123.273 74.293 123.376 74.0146 123.584C73.7362 123.788 73.5259 124.075 73.3839 124.445C73.2418 124.811 73.1708 125.239 73.1708 125.727ZM79.4947 131.455V122.455H80.4663V123.494H80.5856C80.6594 123.381 80.7617 123.236 80.8924 123.06C81.0259 122.881 81.2163 122.722 81.4634 122.582C81.7134 122.44 82.0515 122.369 82.4776 122.369C83.0288 122.369 83.5146 122.507 83.935 122.783C84.3555 123.058 84.6836 123.449 84.9194 123.955C85.1552 124.46 85.2731 125.057 85.2731 125.744C85.2731 126.438 85.1552 127.038 84.9194 127.547C84.6836 128.053 84.3569 128.445 83.9393 128.723C83.5217 128.999 83.0401 129.136 82.4947 129.136C82.0742 129.136 81.7376 129.067 81.4847 128.928C81.2319 128.786 81.0373 128.625 80.9009 128.446C80.7646 128.264 80.6594 128.114 80.5856 127.994H80.5004V131.455H79.4947ZM80.4833 125.727C80.4833 126.222 80.5558 126.658 80.7006 127.036C80.8455 127.411 81.0572 127.705 81.3356 127.918C81.614 128.128 81.9549 128.233 82.3583 128.233C82.7788 128.233 83.1296 128.122 83.4109 127.901C83.695 127.676 83.908 127.375 84.0501 126.997C84.195 126.616 84.2674 126.193 84.2674 125.727C84.2674 125.267 84.1964 124.852 84.0543 124.483C83.9151 124.111 83.7035 123.817 83.4194 123.601C83.1381 123.382 82.7844 123.273 82.3583 123.273C81.9492 123.273 81.6055 123.376 81.3271 123.584C81.0487 123.788 80.8384 124.075 80.6964 124.445C80.5543 124.811 80.4833 125.239 80.4833 125.727ZM89.4663 129.136C88.8754 129.136 88.3569 128.996 87.9109 128.714C87.4677 128.433 87.1211 128.04 86.8711 127.534C86.6239 127.028 86.5004 126.437 86.5004 125.761C86.5004 125.08 86.6239 124.484 86.8711 123.976C87.1211 123.467 87.4677 123.072 87.9109 122.791C88.3569 122.51 88.8754 122.369 89.4663 122.369C90.0572 122.369 90.5742 122.51 91.0174 122.791C91.4634 123.072 91.81 123.467 92.0572 123.976C92.3072 124.484 92.4322 125.08 92.4322 125.761C92.4322 126.437 92.3072 127.028 92.0572 127.534C91.81 128.04 91.4634 128.433 91.0174 128.714C90.5742 128.996 90.0572 129.136 89.4663 129.136ZM89.4663 128.233C89.9151 128.233 90.2844 128.118 90.5742 127.888C90.864 127.658 91.0785 127.355 91.2177 126.98C91.3569 126.605 91.4265 126.199 91.4265 125.761C91.4265 125.324 91.3569 124.916 91.2177 124.538C91.0785 124.161 90.864 123.855 90.5742 123.622C90.2844 123.389 89.9151 123.273 89.4663 123.273C89.0174 123.273 88.6481 123.389 88.3583 123.622C88.0685 123.855 87.854 124.161 87.7148 124.538C87.5756 124.916 87.506 125.324 87.506 125.761C87.506 126.199 87.5756 126.605 87.7148 126.98C87.854 127.355 88.0685 127.658 88.3583 127.888C88.6481 128.118 89.0174 128.233 89.4663 128.233ZM93.9673 129V122.455H94.9389V123.443H95.0071C95.1264 123.119 95.3423 122.857 95.6548 122.655C95.9673 122.453 96.3196 122.352 96.7116 122.352C96.7855 122.352 96.8778 122.354 96.9886 122.357C97.0994 122.359 97.1832 122.364 97.2401 122.369V123.392C97.206 123.384 97.1278 123.371 97.0057 123.354C96.8864 123.334 96.7599 123.324 96.6264 123.324C96.3082 123.324 96.0241 123.391 95.7741 123.524C95.527 123.655 95.331 123.837 95.1861 124.07C95.044 124.3 94.973 124.562 94.973 124.858V129H93.9673ZM101.689 122.455V123.307H98.2969V122.455H101.689ZM99.2855 120.886H100.291V127.125C100.291 127.409 100.332 127.622 100.415 127.764C100.5 127.903 100.608 127.997 100.739 128.045C100.872 128.091 101.013 128.114 101.161 128.114C101.271 128.114 101.362 128.108 101.433 128.097C101.504 128.082 101.561 128.071 101.604 128.062L101.808 128.966C101.74 128.991 101.645 129.017 101.523 129.043C101.401 129.071 101.246 129.085 101.058 129.085C100.774 129.085 100.496 129.024 100.223 128.902C99.9531 128.78 99.7287 128.594 99.5497 128.344C99.3736 128.094 99.2855 127.778 99.2855 127.398V120.886ZM104.531 120.273L104.446 126.545H103.457L103.372 120.273H104.531ZM103.952 129.068C103.741 129.068 103.561 128.993 103.411 128.842C103.26 128.692 103.185 128.511 103.185 128.301C103.185 128.091 103.26 127.911 103.411 127.76C103.561 127.609 103.741 127.534 103.952 127.534C104.162 127.534 104.342 127.609 104.493 127.76C104.643 127.911 104.719 128.091 104.719 128.301C104.719 128.44 104.683 128.568 104.612 128.685C104.544 128.801 104.452 128.895 104.335 128.966C104.222 129.034 104.094 129.068 103.952 129.068Z" fill="white"/>
<path d="M71.3574 57.6715C78.1208 57.6715 83.626 50.7919 83.626 42.3359C83.626 41.5765 83.5679 40.8313 83.4811 40.1005C83.4811 40.0572 83.4882 40.0067 83.4811 39.9633C83.4665 39.8331 83.4377 39.7029 83.416 39.5728C83.3873 39.3775 83.358 39.1751 83.3222 38.9794C83.2642 38.6468 83.1991 38.3284 83.1199 38.003C83.0911 37.8874 83.0694 37.7714 83.0401 37.6629C81.8251 32.838 78.8081 29.1631 75.0178 27.7019C75.0107 27.7019 75.0031 27.6948 75.0031 27.6948C74.656 27.5646 74.3088 27.4491 73.947 27.3547C73.8966 27.3401 73.8385 27.326 73.7881 27.3113C73.4697 27.2316 73.1442 27.1741 72.8117 27.1231C72.732 27.1085 72.6528 27.0944 72.573 27.0797C72.1754 27.0293 71.7702 27 71.365 27C65.8383 27 61.2163 31.4706 59.6607 37.7275C59.639 37.8073 59.6244 37.894 59.6027 37.9733C59.5159 38.3421 59.4361 38.711 59.3711 39.0874C59.3347 39.3114 59.306 39.543 59.2772 39.7746C59.2409 40.0204 59.2121 40.2666 59.1833 40.5199C59.1546 40.8307 59.14 41.1421 59.1253 41.4529C59.1183 41.5977 59.1036 41.742 59.0966 41.8868C59.0966 41.9015 59.1036 41.9232 59.1036 41.9373C59.1036 42.0675 59.089 42.1906 59.089 42.3208C59.089 50.7923 64.594 57.6719 71.3576 57.6719L71.3574 57.6715ZM60.9554 41.1863C60.9771 40.8754 61.0058 40.5712 61.0492 40.2674C61.0563 40.2094 61.0638 40.1519 61.0709 40.0938L72.2757 28.889H72.3262C72.4417 28.9036 72.5649 28.9253 72.6804 28.947C72.7889 28.9687 72.8974 28.9904 73.0059 29.0121C73.1431 29.0409 73.2733 29.0701 73.4111 29.106L61.1647 41.3523C61.0925 41.3306 61.0199 41.316 60.9477 41.2943C60.9553 41.259 60.9554 41.2226 60.9554 41.1863ZM70.7646 28.8602L61.4403 38.1845C61.6139 37.4902 61.8308 36.8171 62.0912 36.1738L69.1079 29.157C69.6433 29.0052 70.1857 28.9037 70.7428 28.8603H70.7645L70.7646 28.8602ZM64.2685 32.4625C64.7388 31.8983 65.2525 31.3847 65.7949 30.9362L64.2685 32.4625ZM68.9416 39.3561L66.8874 41.4102C66.345 41.5551 65.7879 41.6635 65.2162 41.7211L76.4064 30.5308C76.6668 30.719 76.9201 30.9214 77.1587 31.1313L68.9416 39.3561ZM73.2527 36.586C72.3339 38.127 71.0538 39.3925 69.5491 40.2897L73.2527 36.586ZM63.6464 41.7651C63.2342 41.7434 62.8219 41.7071 62.4168 41.6349L74.5621 29.4896C74.8729 29.6197 75.1772 29.7646 75.4734 29.9381L63.6464 41.7651ZM75.4664 34.3794L77.9474 31.8984C78.1644 32.13 78.3743 32.3686 78.5842 32.622L75.5391 35.6671C75.4594 35.5803 75.3801 35.5006 75.3004 35.4067C75.1556 35.2332 74.9603 35.1317 74.7434 35.0959L75.4664 34.3794ZM78.3602 34.3794L79.2356 33.504C79.4163 33.7714 79.5898 34.054 79.7563 34.3431L77.0437 37.0558C76.7904 36.8605 76.5446 36.6581 76.306 36.4407L78.3602 34.3794ZM80.2771 35.3487C80.4219 35.6595 80.5592 35.9709 80.6894 36.2963L78.8304 38.1553C78.5266 38.0105 78.237 37.8515 77.9479 37.6779L80.2771 35.3487ZM81.0799 37.4393C81.1884 37.7864 81.2822 38.1482 81.369 38.51L80.9714 38.9076C80.6096 38.8208 80.2625 38.727 79.9153 38.6039L81.0799 37.4393ZM71.3575 55.8569C65.8165 55.8569 61.2808 50.2434 60.9407 43.1833C61.9822 43.4653 63.053 43.6102 64.1454 43.6102C68.5293 43.6102 72.5872 41.2734 74.8078 37.5556C76.7102 39.3929 79.119 40.5504 81.7449 40.8975C81.7812 41.3748 81.81 41.8522 81.81 42.3441C81.8105 49.7878 77.1229 55.8569 71.3575 55.8569Z" fill="white"/>
<path d="M89.0439 66.0911C86.1214 62.8214 81.9404 60.9479 77.5565 60.9479H76.6159C76.5004 60.9479 76.3773 60.9696 76.2688 61.02C76.1603 61.0634 76.0589 61.1356 75.9721 61.2153L71.4803 65.7076L66.988 61.2153C66.9012 61.1285 66.8074 61.0634 66.6913 61.02C66.5828 60.9766 66.4597 60.9479 66.3442 60.9479H65.4036C61.0197 60.9479 56.8387 62.8214 53.9162 66.0911C51.0012 69.3607 49.605 73.7301 50.097 78.0775L50.5239 81.8897C50.7262 83.6619 52.2238 85 54.0036 85H88.9568C90.7365 85 92.2265 83.6619 92.4365 81.8821L92.8634 78.0699C93.3549 73.7299 91.9587 69.3607 89.0437 66.0911H89.0439ZM91.0547 77.8753L90.6278 81.6874C90.5264 82.5412 89.8104 83.1921 88.9565 83.1921H54.0033C53.1495 83.1921 52.4336 82.5482 52.332 81.6944L51.9051 77.8822C51.4712 74.0414 52.7009 70.1929 55.2763 67.3066C57.8518 64.4274 61.5408 62.7709 65.4033 62.7709H65.9675L70.8358 67.6392C71.0164 67.8199 71.248 67.9067 71.4796 67.9067C71.7112 67.9067 71.9428 67.8199 72.1235 67.6392L76.9918 62.7709H77.5559C81.4185 62.7709 85.1081 64.4205 87.6829 67.3066C90.2588 70.1853 91.4885 74.0337 91.0546 77.8751L91.0547 77.8753Z" fill="white"/>
<path d="M85.4555 69.7079H77.2307C76.7317 69.7079 76.3195 70.1131 76.3195 70.6192V73.5201C76.3195 74.0191 76.7246 74.4314 77.2307 74.4314H85.4555C85.9546 74.4314 86.3668 74.0262 86.3668 73.5201V70.6192C86.3668 70.1131 85.9546 69.7079 85.4555 69.7079ZM84.5442 72.6088H78.135V71.524H84.5442V72.6088Z" fill="white"/>
</g>
<defs>
<filter id="filter0_d_1416_97" x="0" y="0" width="143" height="154" filterUnits="userSpaceOnUse" color-interpolation-filters="sRGB">
<feFlood flood-opacity="0" result="BackgroundImageFix"/>
<feColorMatrix in="SourceAlpha" type="matrix" values="0 0 0 0 0 0 0 0 0 0 0 0 0 0 0 0 0 0 127 0" result="hardAlpha"/>
<feOffset dy="4"/>
<feGaussianBlur stdDeviation="5.5"/>
<feComposite in2="hardAlpha" operator="out"/>
<feColorMatrix type="matrix" values="0 0 0 0 0 0 0 0 0 0 0 0 0 0 0 0 0 0 0.25 0"/>
<feBlend mode="normal" in2="BackgroundImageFix" result="effect1_dropShadow_1416_97"/>
<feBlend mode="normal" in="SourceGraphic" in2="effect1_dropShadow_1416_97" result="shape"/>
</filter>
</defs>
</svg>
